<svg xmlns="http://www.w3.org/2000/svg" width="13.76" height="13.76" viewBox="14.176 14.176 13.76 13.76"><g data-name="instagram-line"><path d="M21.056 18.992a2.064 2.064 0 1 0 0 4.128 2.064 2.064 0 0 0 0-4.128Zm0-1.376a3.44 3.44 0 1 1 0 6.88 3.44 3.44 0 0 1 0-6.88Zm4.472-.172a.86.86 0 1 1-1.72 0 .86.86 0 0 1 1.72 0Zm-4.472-1.892c-1.702 0-1.98.005-2.772.04-.54.025-.901.097-1.237.228a1.986 1.986 0 0 0-.743.484c-.215.208-.381.462-.484.743-.131.337-.203.698-.228 1.237-.036.76-.04 1.025-.04 2.772 0 1.702.005 1.98.04 2.772.025.538.097.901.228 1.236.116.3.254.515.482.743.232.231.448.37.744.484.34.131.701.204 1.238.229.76.036 1.025.04 2.772.04 1.702 0 1.98-.005 2.772-.04.538-.026.9-.098 1.236-.228a2.01 2.01 0 0 0 .743-.483 1.99 1.99 0 0 0 .484-.743c.131-.34.204-.702.229-1.238.036-.76.04-1.025.04-2.772 0-1.702-.005-1.98-.04-2.772-.026-.538-.098-.901-.229-1.237a2.003 2.003 0 0 0-.483-.743 1.984 1.984 0 0 0-.743-.484c-.337-.131-.7-.203-1.237-.228-.76-.036-1.025-.04-2.772-.04Zm0-1.376c1.87 0 2.102.007 2.836.041.732.035 1.231.15 1.67.32.454.175.837.412 1.22.793.35.344.62.76.792 1.22.17.438.286.937.32 1.67.033.733.042.967.042 2.836 0 1.87-.007 2.102-.042 2.836-.034.732-.15 1.231-.32 1.67a3.36 3.36 0 0 1-.793 1.22c-.344.349-.76.62-1.219.792-.438.17-.938.286-1.67.32-.734.033-.967.042-2.836.042-1.87 0-2.103-.007-2.836-.042-.733-.034-1.232-.15-1.67-.32a3.364 3.364 0 0 1-1.22-.793c-.35-.344-.62-.76-.793-1.219-.17-.438-.285-.938-.32-1.67-.032-.734-.041-.967-.041-2.836 0-1.87.007-2.103.041-2.836.035-.733.15-1.232.32-1.67.172-.46.443-.876.793-1.22.344-.35.76-.62 1.22-.793.438-.17.937-.285 1.67-.32.733-.032.967-.041 2.836-.041Z" fill-rule="evenodd" data-name="Path 701"/></g></svg>