<svg xmlns="http://www.w3.org/2000/svg" width="14.024" height="11.402" viewBox="14.024 15.337 14.024 11.402"><g data-name="twitter-fill"><path d="M28.047 16.691a5.768 5.768 0 0 1-1.652.453 2.887 2.887 0 0 0 1.265-1.592 5.75 5.75 0 0 1-1.827.698 2.877 2.877 0 0 0-4.902 2.624A8.17 8.17 0 0 1 15 15.868a2.877 2.877 0 0 0 .89 3.842 2.868 2.868 0 0 1-1.304-.36v.035c0 1.37.965 2.55 2.308 2.822a2.896 2.896 0 0 1-1.3.05 2.88 2.88 0 0 0 2.688 1.998 5.775 5.775 0 0 1-4.26 1.192 8.139 8.139 0 0 0 4.41 1.293c5.294 0 8.188-4.385 8.188-8.187 0-.124-.004-.25-.009-.372a5.845 5.845 0 0 0 1.436-1.49Z" fill-rule="evenodd" data-name="Path 703"/></g></svg>