<svg xmlns="http://www.w3.org/2000/svg" width="17.85" height="22.2" viewBox="1475.683 41.15 17.85 22.2"><g data-name="Group 2359"><g data-name="Ellipse 32"><path d="M1487.733 48.398a.692.692 0 1 1 0 .1" fill="#333" fill-rule="evenodd"/><path d="M1487.858 48.407a.567.567 0 1 1 0 .082" stroke-linejoin="round" stroke-linecap="round" stroke-width=".20481" stroke="#333" fill="transparent"/></g><g data-name="Ellipse 31"><path d="M1480.461 48.398a.692.692 0 1 1 0 .1" fill="#333" fill-rule="evenodd"/><path d="M1480.586 48.407a.567.567 0 1 1 0 .082" stroke-linejoin="round" stroke-linecap="round" stroke-width=".20481" stroke="#333" fill="transparent"/></g><g data-name="Path 722"><path d="m1493.333 60.2-1.25-14.067a.601.601 0 0 0-.598-.55h-2.57a4.313 4.313 0 0 0-4.309-4.242 4.313 4.313 0 0 0-4.31 4.243h-2.57a.598.598 0 0 0-.597.549l-1.25 14.066c0 .018-.004.036-.004.054 0 1.602 1.468 2.904 3.275 2.904h10.912c1.807 0 3.275-1.302 3.275-2.904 0-.018 0-.036-.004-.054Zm-8.727-17.654c1.69 0 3.07 1.356 3.105 3.038h-6.21a3.108 3.108 0 0 1 3.105-3.038Zm5.456 19.407h-10.912c-1.134 0-2.053-.75-2.07-1.673l1.195-13.487h3.499-.278 6.433c.276.002.02 0 .354 0h2.649l1.2 13.487c-.017.923-.941 1.673-2.07 1.673Z" fill="#333" fill-rule="evenodd"/><path d="m1493.333 60.2-1.25-14.067a.601.601 0 0 0-.598-.55h-2.57a4.313 4.313 0 0 0-4.309-4.242 4.313 4.313 0 0 0-4.31 4.243h-2.57a.598.598 0 0 0-.597.549l-1.25 14.066c0 .018-.004.036-.004.054 0 1.602 1.468 2.904 3.275 2.904h10.912c1.807 0 3.275-1.302 3.275-2.904 0-.018 0-.036-.004-.054Zm-8.727-17.654c1.69 0 3.07 1.356 3.105 3.038h-6.21a3.108 3.108 0 0 1 3.105-3.038Zm5.456 19.407h-10.912c-1.134 0-2.053-.75-2.07-1.673l1.195-13.487h3.499-.278 6.433c.276.002.02 0 .354 0h2.649l1.2 13.487c-.017.923-.941 1.673-2.07 1.673Z" stroke-linejoin="round" stroke-linecap="round" stroke-width=".25" stroke="#333" fill="transparent"/></g></g></svg>