<svg xmlns="http://www.w3.org/2000/svg" width="15.885" height="10.211" viewBox="756 861.029 15.885 10.211"><g data-name="eye-open"><path d="M771.707 865.523a9.467 9.467 0 0 0-3.337-3.262c-1.398-.821-2.874-1.232-4.428-1.232-1.554 0-3.03.41-4.427 1.232a9.465 9.465 0 0 0-3.338 3.262c-.118.207-.177.411-.177.612 0 .2.059.405.177.612a9.463 9.463 0 0 0 3.338 3.262c1.397.821 2.873 1.231 4.427 1.231 1.554 0 3.03-.409 4.428-1.227a9.404 9.404 0 0 0 3.337-3.266c.119-.207.178-.411.178-.612s-.06-.405-.178-.612Zm-9.666-2.424a2.594 2.594 0 0 1 1.901-.793.41.41 0 0 1 .302.124.41.41 0 0 1 .124.301.41.41 0 0 1-.124.301.41.41 0 0 1-.302.124c-.508 0-.942.18-1.303.541-.36.36-.54.795-.54 1.303a.41.41 0 0 1-.125.302.41.41 0 0 1-.301.124.41.41 0 0 1-.301-.124.41.41 0 0 1-.125-.302c0-.738.265-1.372.794-1.901Zm5.753 5.93a7.3 7.3 0 0 1-3.852 1.077 7.297 7.297 0 0 1-3.851-1.077 9.149 9.149 0 0 1-2.956-2.894c.898-1.395 2.024-2.438 3.377-3.13-.36.615-.54 1.28-.54 1.995 0 1.094.388 2.029 1.165 2.806.777.777 1.712 1.165 2.805 1.165 1.094 0 2.029-.388 2.806-1.165.777-.777 1.165-1.712 1.165-2.806 0-.715-.18-1.38-.54-1.994 1.353.691 2.479 1.734 3.377 3.129a9.147 9.147 0 0 1-2.956 2.894Z" fill="#fff" fill-rule="evenodd" data-name="Path 244"/></g></svg>