<svg xmlns="http://www.w3.org/2000/svg" width="33.7" height="38.467" viewBox="1322.45 956.667 33.7 38.467"><g data-name="headphones"><g data-name="Group 2346"><g data-name="Path 721"><path d="M1352.201 969.946c0-7.122-5.774-12.896-12.896-12.896-7.123 0-12.897 5.774-12.897 12.896-1.84.23-3.582 1.433-3.582 4.227v6.735c0 3.152 2.207 4.299 4.299 4.299h2.078c.395 0 .716-.321.716-.717v-13.87a.716.716 0 0 0-.716-.717h-1.362c0-6.33 5.133-11.463 11.464-11.463 6.33 0 11.463 5.132 11.463 11.463h-1.361a.716.716 0 0 0-.717.717v13.849c0 .395.321.716.717.716h1.361c-.2 4.922-2.565 6.076-7.286 6.284v-.48c0-.792-.642-1.433-1.433-1.433h-4.507c-.791 0-1.433.641-1.433 1.433v2.328c0 .792.642 1.433 1.433 1.433h4.521c.792 0 1.433-.641 1.433-1.433v-.415c4.542-.208 8.469-1.147 8.705-7.76 1.841-.229 3.582-1.433 3.582-4.227v-6.735c0-2.808-1.734-4.005-3.582-4.234Zm-23.715 1.34v12.466h-1.397c-1.06 0-2.866-.372-2.866-2.865v-6.735c0-2.472 1.784-2.866 2.866-2.866h1.397Zm13.577 20.95v1.088h-4.52v-2.328h4.52v1.24Zm12.287-11.328c0 2.472-1.784 2.866-2.865 2.866h-1.362v-12.438h1.397c1.06 0 2.866.373 2.866 2.866l-.036 6.706Z" fill="#f04639" fill-rule="evenodd"/><path d="M1352.201 969.946c0-7.122-5.774-12.896-12.896-12.896-7.123 0-12.897 5.774-12.897 12.896-1.84.23-3.582 1.433-3.582 4.227v6.735c0 3.152 2.207 4.299 4.299 4.299h2.078c.395 0 .716-.321.716-.717v-13.87a.716.716 0 0 0-.716-.717h-1.362c0-6.33 5.133-11.463 11.464-11.463 6.33 0 11.463 5.132 11.463 11.463h-1.361a.716.716 0 0 0-.717.717v13.849c0 .395.321.716.717.716h1.361c-.2 4.922-2.565 6.076-7.286 6.284v-.48c0-.792-.642-1.433-1.433-1.433h-4.507c-.791 0-1.433.641-1.433 1.433v2.328c0 .792.642 1.433 1.433 1.433h4.521c.792 0 1.433-.641 1.433-1.433v-.415c4.542-.208 8.469-1.147 8.705-7.76 1.841-.229 3.582-1.433 3.582-4.227v-6.735c0-2.808-1.734-4.005-3.582-4.234Zm-23.715 1.34v12.466h-1.397c-1.06 0-2.866-.372-2.866-2.865v-6.735c0-2.472 1.784-2.866 2.866-2.866h1.397Zm13.577 20.95v1.088h-4.52v-2.328h4.52v1.24Zm12.287-11.328c0 2.472-1.784 2.866-2.865 2.866h-1.362v-12.438h1.397c1.06 0 2.866.373 2.866 2.866l-.036 6.706Z" stroke-linejoin="round" stroke-linecap="round" stroke-width=".5" stroke="#f04639" fill="transparent"/></g></g></g></svg>