<svg xmlns="http://www.w3.org/2000/svg" width="25.517" height="34" viewBox="717.867 960 25.517 34"><g data-name="lock"><path d="M738.065 974.875a1.063 1.063 0 0 1-1.062-1.063V968.5a6.383 6.383 0 0 0-6.375-6.375 6.383 6.383 0 0 0-6.375 6.375v5.313a1.063 1.063 0 0 1-2.125 0V968.5c0-4.688 3.812-8.5 8.5-8.5 4.688 0 8.5 3.812 8.5 8.5v5.313c0 .586-.476 1.062-1.063 1.062Zm0 0" fill="#f04639" fill-rule="evenodd" data-name="Path 713"/><path d="M740.19 994h-19.125a3.191 3.191 0 0 1-3.187-3.188v-14.875a3.191 3.191 0 0 1 3.187-3.187h19.125a3.191 3.191 0 0 1 3.188 3.188v14.875A3.191 3.191 0 0 1 740.19 994Zm-19.125-19.125c-.585 0-1.062.476-1.062 1.063v14.875c0 .586.477 1.062 1.062 1.062h19.125c.586 0 1.063-.476 1.063-1.063v-14.875c0-.586-.477-1.062-1.063-1.062h-19.125Zm0 0" fill="#f04639" fill-rule="evenodd" data-name="Path 712"/></g></svg>