<svg xmlns="http://www.w3.org/2000/svg" width="44.3" height="38.783" viewBox="1006.817 958.383 44.3 38.783"><g data-name="save-money"><g data-name="Path 720"><path d="M1034.884 977.089a.622.622 0 0 1-.622-.623v-13.245a.622.622 0 1 1 1.244 0v13.245a.622.622 0 0 1-.622.623Z" fill="#f04639" fill-rule="evenodd"/><path d="M1034.884 977.089a.622.622 0 0 1-.622-.623v-13.245a.622.622 0 1 1 1.244 0v13.245a.622.622 0 0 1-.622.623Z" stroke-linejoin="round" stroke-linecap="round" stroke-width=".5" stroke="#f04639" fill="transparent"/></g><g data-name="Path 719"><path d="M1034.884 976.043a3.47 3.47 0 0 1-3.52-3.41.622.622 0 1 1 1.245 0 2.278 2.278 0 1 0 2.275-2.166.622.622 0 0 1 0-1.244 3.412 3.412 0 1 1 0 6.82Z" fill="#f04639" fill-rule="evenodd"/><path d="M1034.884 976.043a3.47 3.47 0 0 1-3.52-3.41.622.622 0 1 1 1.245 0 2.278 2.278 0 1 0 2.275-2.166.622.622 0 0 1 0-1.244 3.412 3.412 0 1 1 0 6.82Z" stroke-linejoin="round" stroke-linecap="round" stroke-width=".5" stroke="#f04639" fill="transparent"/></g><g data-name="Path 718"><path d="M1034.884 970.467a3.412 3.412 0 1 1 3.519-3.41.622.622 0 1 1-1.245 0 2.278 2.278 0 1 0-2.274 2.166.622.622 0 1 1 0 1.244Z" fill="#f04639" fill-rule="evenodd"/><path d="M1034.884 970.467a3.412 3.412 0 1 1 3.519-3.41.622.622 0 1 1-1.245 0 2.278 2.278 0 1 0-2.274 2.166.622.622 0 1 1 0 1.244Z" stroke-linejoin="round" stroke-linecap="round" stroke-width=".5" stroke="#f04639" fill="transparent"/></g><g data-name="Path 717"><path d="M1034.884 980.94c-6.128 0-11.096-4.967-11.096-11.095 0-6.128 4.968-11.095 11.096-11.095 6.127 0 11.095 4.967 11.095 11.095-.007 6.125-4.97 11.088-11.095 11.096Zm0-20.946c-5.44 0-9.851 4.41-9.851 9.85 0 5.441 4.41 9.851 9.85 9.852 5.441 0 9.852-4.41 9.852-9.851-.007-5.438-4.413-9.845-9.851-9.85Z" fill="#f04639" fill-rule="evenodd"/><path d="M1034.884 980.94c-6.128 0-11.096-4.967-11.096-11.095 0-6.128 4.968-11.095 11.096-11.095 6.127 0 11.095 4.967 11.095 11.095-.007 6.125-4.97 11.088-11.095 11.096Zm0-20.946c-5.44 0-9.851 4.41-9.851 9.85 0 5.441 4.41 9.851 9.85 9.852 5.441 0 9.852-4.41 9.852-9.851-.007-5.438-4.413-9.845-9.851-9.85Z" stroke-linejoin="round" stroke-linecap="round" stroke-width=".5" stroke="#f04639" fill="transparent"/></g><g data-name="Path 716"><path d="M1014.52 993.965h-6.701a.622.622 0 0 1-.622-.622v-13.547c0-.344.278-.622.622-.622h6.7c.344 0 .623.278.623.622v13.547a.622.622 0 0 1-.622.622Zm-6.079-1.244h5.457v-12.303h-5.457v12.303Z" fill="#f04639" fill-rule="evenodd"/><path d="M1014.52 993.965h-6.701a.622.622 0 0 1-.622-.622v-13.547c0-.344.278-.622.622-.622h6.7c.344 0 .623.278.623.622v13.547a.622.622 0 0 1-.622.622Zm-6.079-1.244h5.457v-12.303h-5.457v12.303Z" stroke-linejoin="round" stroke-linecap="round" stroke-width=".5" stroke="#f04639" fill="transparent"/></g><g data-name="Path 715"><path d="M1029.31 996.806a13.19 13.19 0 0 1-4.496-.787l-10.504-3.814a.622.622 0 0 1 .425-1.17l10.505 3.815a12.04 12.04 0 0 0 9.527-.591l14.253-7.28a5.771 5.771 0 0 0-5.556-.921l-6.835 2.489a.622.622 0 0 1-.717-1.007.609.609 0 0 1 .214-.134l6.914-2.517a7.019 7.019 0 0 1 6.906 1.244l.587.51a.622.622 0 0 1-.124 1.023l-15.079 7.701a13.289 13.289 0 0 1-6.02 1.44Z" fill="#f04639" fill-rule="evenodd"/><path d="M1029.31 996.806a13.19 13.19 0 0 1-4.496-.787l-10.504-3.814a.622.622 0 0 1 .425-1.17l10.505 3.815a12.04 12.04 0 0 0 9.527-.591l14.253-7.28a5.771 5.771 0 0 0-5.556-.921l-6.835 2.489a.622.622 0 0 1-.717-1.007.609.609 0 0 1 .214-.134l6.914-2.517a7.019 7.019 0 0 1 6.906 1.244l.587.51a.622.622 0 0 1-.124 1.023l-15.079 7.701a13.289 13.289 0 0 1-6.02 1.44Z" stroke-linejoin="round" stroke-linecap="round" stroke-width=".5" stroke="#f04639" fill="transparent"/></g><g data-name="Path 714"><path d="M1034.59 989.446h-10.512a.622.622 0 0 1 0-1.245h10.511c.434.003.85-.168 1.156-.474.028-.028.052-.054.075-.08a.594.594 0 0 1 .04-.055c.243-.291.375-.658.374-1.037a1.648 1.648 0 0 0-1.646-1.646h-5.874a.622.622 0 0 1-.46-.204 8.368 8.368 0 0 0-6.182-2.734h-7.55a.622.622 0 1 1 0-1.244h7.552a9.617 9.617 0 0 1 6.912 2.937h5.603a2.894 2.894 0 0 1 2.891 2.889c0 .645-.217 1.271-.618 1.777a.575.575 0 0 1-.053.073c-.062.07-.115.133-.18.197a2.872 2.872 0 0 1-2.04.846Z" fill="#f04639" fill-rule="evenodd"/><path d="M1034.59 989.446h-10.512a.622.622 0 0 1 0-1.245h10.511c.434.003.85-.168 1.156-.474.028-.028.052-.054.075-.08a.594.594 0 0 1 .04-.055c.243-.291.375-.658.374-1.037a1.648 1.648 0 0 0-1.646-1.646h-5.874a.622.622 0 0 1-.46-.204 8.368 8.368 0 0 0-6.182-2.734h-7.55a.622.622 0 1 1 0-1.244h7.552a9.617 9.617 0 0 1 6.912 2.937h5.603a2.894 2.894 0 0 1 2.891 2.889c0 .645-.217 1.271-.618 1.777a.575.575 0 0 1-.053.073c-.062.07-.115.133-.18.197a2.872 2.872 0 0 1-2.04.846Z" stroke-linejoin="round" stroke-linecap="round" stroke-width=".5" stroke="#f04639" fill="transparent"/></g></g></svg>