<svg xmlns="http://www.w3.org/2000/svg" width="19.617" height="19.633" viewBox="1420 42.55 19.617 19.633"><g data-name="search"><g data-name="Group 49"><g data-name="Group 48"><path d="m1439.375 60.81-4.57-4.57a.797.797 0 1 0-1.127 1.128l4.57 4.57a.794.794 0 0 0 1.127 0 .797.797 0 0 0 0-1.127Z" fill="#333" fill-rule="evenodd" data-name="Path 235"/></g></g><g data-name="Group 47"><g data-name="Group 46"><path d="M1428.635 42.563c-4.761 0-8.635 3.874-8.635 8.635 0 4.762 3.874 8.635 8.635 8.635 4.762 0 8.636-3.873 8.636-8.635 0-4.761-3.874-8.635-8.636-8.635Zm0 15.676a7.05 7.05 0 0 1-7.04-7.04 7.05 7.05 0 0 1 7.04-7.042 7.05 7.05 0 0 1 7.041 7.041 7.05 7.05 0 0 1-7.04 7.041Z" fill="#333" fill-rule="evenodd" data-name="Path 234"/></g></g></g></svg>