<svg xmlns="http://www.w3.org/2000/svg" width="47.9" height="30.433" viewBox="377.333 978.267 47.9 30.433"><g data-name="shipped (1)"><g data-name="Group 2341"><g data-name="Group 2340"><g data-name="Path 710"><path d="M403.388 985.82a.744.744 0 0 0-1.052 0l-6.616 6.616-3.442-3.441a.744.744 0 1 0-1.052 1.052l3.968 3.968a.741.741 0 0 0 1.052 0l7.142-7.142a.744.744 0 0 0 0-1.053Z" fill="#f04639" fill-rule="evenodd"/><path d="M403.388 985.82a.744.744 0 0 0-1.052 0l-6.616 6.616-3.442-3.441a.744.744 0 1 0-1.052 1.052l3.968 3.968a.741.741 0 0 0 1.052 0l7.142-7.142a.744.744 0 0 0 0-1.053Z" stroke-linejoin="round" stroke-linecap="round" stroke-width=".25" stroke="#f04639" fill="transparent"/></g></g></g><g data-name="Group 2339"><g data-name="Group 2338"><g data-name="Path 709"><path d="M389.371 995.919h-9.523a.744.744 0 0 0 0 1.488h9.523a.744.744 0 0 0 0-1.488Z" fill="#f04639" fill-rule="evenodd"/><path d="M389.371 995.919h-9.523a.744.744 0 0 0 0 1.488h9.523a.744.744 0 0 0 0-1.488Z" stroke-linejoin="round" stroke-linecap="round" stroke-width=".25" stroke="#f04639" fill="transparent"/></g></g></g><g data-name="Group 2337"><g data-name="Group 2336"><g data-name="Path 708"><path d="M408.417 999.093h-11.11a.744.744 0 0 0 0 1.488h11.11a.744.744 0 0 0 0-1.488Z" fill="#f04639" fill-rule="evenodd"/><path d="M408.417 999.093h-11.11a.744.744 0 0 0 0 1.488h11.11a.744.744 0 0 0 0-1.488Z" stroke-linejoin="round" stroke-linecap="round" stroke-width=".25" stroke="#f04639" fill="transparent"/></g></g></g><g data-name="Group 2335"><g data-name="Group 2334"><g data-name="Path 707"><path d="M417.146 1002.268a1.54 1.54 0 0 0-1.537 1.537c0 .848.69 1.538 1.537 1.538a1.54 1.54 0 0 0 1.538-1.538 1.54 1.54 0 0 0-1.538-1.537Z" fill="#f04639" fill-rule="evenodd"/><path d="M417.146 1002.268a1.54 1.54 0 0 0-1.537 1.537c0 .848.69 1.538 1.537 1.538a1.54 1.54 0 0 0 1.538-1.538 1.54 1.54 0 0 0-1.538-1.537Z" stroke-linejoin="round" stroke-linecap="round" stroke-width=".25" stroke="#f04639" fill="transparent"/></g></g></g><g data-name="Group 2333"><g data-name="Group 2332"><g data-name="Path 706"><path d="M390.958 1002.268a1.54 1.54 0 0 0-1.537 1.537c0 .848.69 1.538 1.537 1.538a1.54 1.54 0 0 0 1.538-1.538 1.54 1.54 0 0 0-1.538-1.537Z" fill="#f04639" fill-rule="evenodd"/><path d="M390.958 1002.268a1.54 1.54 0 0 0-1.537 1.537c0 .848.69 1.538 1.537 1.538a1.54 1.54 0 0 0 1.538-1.538 1.54 1.54 0 0 0-1.538-1.537Z" stroke-linejoin="round" stroke-linecap="round" stroke-width=".25" stroke="#f04639" fill="transparent"/></g></g></g><g data-name="Group 2331"><g data-name="Group 2330"><g data-name="Path 705"><path d="m421.706 991.202-1.23-4.922a.744.744 0 0 0 .588-.727v-.794a3.128 3.128 0 0 0-3.124-3.124h-5.605v-1.637a1.54 1.54 0 0 0-1.537-1.538h-28.57a1.54 1.54 0 0 0-1.537 1.538v13.49a.744.744 0 0 0 1.488 0v-13.49a.05.05 0 0 1 .05-.05h28.568a.05.05 0 0 1 .05.05v13.49a.744.744 0 0 0 1.488 0v-.843H421.115c1.08.001 1.997.71 2.312 1.687h-2.313a.744.744 0 0 0-.744.744v1.587a2.334 2.334 0 0 0 2.33 2.331h.844v3.274H421.6a4.72 4.72 0 0 0-4.453-3.175 4.72 4.72 0 0 0-4.453 3.175h-.358v-5.605a.744.744 0 0 0-1.488 0v5.604H395.41a4.72 4.72 0 0 0-4.453-3.174 4.72 4.72 0 0 0-4.453 3.174h-4.276a.05.05 0 0 1-.05-.05v-1.636h3.224a.744.744 0 0 0 0-1.488h-7.142a.744.744 0 0 0 0 1.488h2.43v1.637c0 .848.69 1.537 1.538 1.537h4.019l-.002.05a4.717 4.717 0 0 0 4.712 4.712 4.717 4.717 0 0 0 4.712-4.712l-.001-.05h16.766v.05a4.717 4.717 0 0 0 4.71 4.712 4.717 4.717 0 0 0 4.713-4.712l-.002-.05h2.432c.411 0 .744-.333.744-.744v-7.935a3.924 3.924 0 0 0-3.326-3.874Zm-9.37-8.08h5.604c.902 0 1.636.735 1.636 1.637v.05h-7.24v-1.686Zm0 8.035v-4.86h6.61l1.215 4.86h-7.826Zm-21.378 15.872a3.227 3.227 0 0 1-3.224-3.224 3.227 3.227 0 0 1 3.224-3.224 3.227 3.227 0 0 1 3.224 3.224 3.227 3.227 0 0 1-3.224 3.224Zm26.188 0a3.227 3.227 0 0 1-3.224-3.224 3.227 3.227 0 0 1 3.224-3.224 3.227 3.227 0 0 1 3.224 3.224 3.227 3.227 0 0 1-3.224 3.224Zm6.398-9.523h-.843a.844.844 0 0 1-.843-.843v-.843h1.686v1.686Z" fill="#f04639" fill-rule="evenodd"/><path d="m421.706 991.202-1.23-4.922a.744.744 0 0 0 .588-.727v-.794a3.128 3.128 0 0 0-3.124-3.124h-5.605v-1.637a1.54 1.54 0 0 0-1.537-1.538h-28.57a1.54 1.54 0 0 0-1.537 1.538v13.49a.744.744 0 0 0 1.488 0v-13.49a.05.05 0 0 1 .05-.05h28.568a.05.05 0 0 1 .05.05v13.49a.744.744 0 0 0 1.488 0v-.843H421.115c1.08.001 1.997.71 2.312 1.687h-2.313a.744.744 0 0 0-.744.744v1.587a2.334 2.334 0 0 0 2.33 2.331h.844v3.274H421.6a4.72 4.72 0 0 0-4.453-3.175 4.72 4.72 0 0 0-4.453 3.175h-.358v-5.605a.744.744 0 0 0-1.488 0v5.604H395.41a4.72 4.72 0 0 0-4.453-3.174 4.72 4.72 0 0 0-4.453 3.174h-4.276a.05.05 0 0 1-.05-.05v-1.636h3.224a.744.744 0 0 0 0-1.488h-7.142a.744.744 0 0 0 0 1.488h2.43v1.637c0 .848.69 1.537 1.538 1.537h4.019l-.002.05a4.717 4.717 0 0 0 4.712 4.712 4.717 4.717 0 0 0 4.712-4.712l-.001-.05h16.766v.05a4.717 4.717 0 0 0 4.71 4.712 4.717 4.717 0 0 0 4.713-4.712l-.002-.05h2.432c.411 0 .744-.333.744-.744v-7.935a3.924 3.924 0 0 0-3.326-3.874Zm-9.37-8.08h5.604c.902 0 1.636.735 1.636 1.637v.05h-7.24v-1.686Zm0 8.035v-4.86h6.61l1.215 4.86h-7.826Zm-21.378 15.872a3.227 3.227 0 0 1-3.224-3.224 3.227 3.227 0 0 1 3.224-3.224 3.227 3.227 0 0 1 3.224 3.224 3.227 3.227 0 0 1-3.224 3.224Zm26.188 0a3.227 3.227 0 0 1-3.224-3.224 3.227 3.227 0 0 1 3.224-3.224 3.227 3.227 0 0 1 3.224 3.224 3.227 3.227 0 0 1-3.224 3.224Zm6.398-9.523h-.843a.844.844 0 0 1-.843-.843v-.843h1.686v1.686Z" stroke-linejoin="round" stroke-linecap="round" stroke-width=".25" stroke="#f04639" fill="transparent"/></g></g></g></g></svg>